<svg width="263" height="48" viewBox="0 0 263 48" fill="none" xmlns="http://www.w3.org/2000/svg">
<path d="M34.6818 9.90909H43.4886L49.1705 21.7273H49.3977L55.0795 9.90909H63.8864L53.2045 29.8523V39H45.3636V29.8523L34.6818 9.90909ZM71.4822 39.3977C69.1527 39.3977 67.1451 38.9527 65.4595 38.0625C63.7834 37.1629 62.4908 35.875 61.5817 34.1989C60.6821 32.5133 60.2322 30.4962 60.2322 28.1477C60.2322 25.8939 60.6868 23.9242 61.5959 22.2386C62.505 20.553 63.7881 19.2415 65.4453 18.304C67.1025 17.3665 69.058 16.8977 71.3118 16.8977C72.9595 16.8977 74.451 17.1534 75.7862 17.6648C77.1214 18.1761 78.2625 18.9195 79.2095 19.8949C80.1565 20.8608 80.8857 22.035 81.397 23.4176C81.9084 24.8002 82.1641 26.358 82.1641 28.0909V29.9091H62.6754V25.5909H74.9482C74.9387 24.9659 74.7777 24.4167 74.4652 23.9432C74.1622 23.4602 73.7502 23.0862 73.2294 22.821C72.718 22.5464 72.1357 22.4091 71.4822 22.4091C70.8478 22.4091 70.2654 22.5464 69.7351 22.821C69.2048 23.0862 68.7786 23.4555 68.4567 23.929C68.1442 24.4025 67.9785 24.9564 67.9595 25.5909V30.25C67.9595 30.9508 68.1063 31.5758 68.3999 32.125C68.6934 32.6742 69.1148 33.1051 69.6641 33.4176C70.2133 33.7301 70.8762 33.8864 71.6527 33.8864C72.1925 33.8864 72.6849 33.8106 73.13 33.6591C73.5845 33.5076 73.9728 33.2898 74.2947 33.0057C74.6167 32.7121 74.8535 32.3617 75.005 31.9545H82.1641C81.9179 33.4697 81.3355 34.786 80.4169 35.9034C79.4983 37.0114 78.2815 37.8731 76.7663 38.4886C75.2607 39.0947 73.4993 39.3977 71.4822 39.3977ZM91.4432 39.3409C90.0511 39.3409 88.8201 39.1136 87.75 38.6591C86.6894 38.1951 85.8561 37.4943 85.25 36.5568C84.6439 35.6193 84.3409 34.4261 84.3409 32.9773C84.3409 31.7841 84.5445 30.7661 84.9517 29.9233C85.3589 29.071 85.9271 28.375 86.6562 27.8352C87.3854 27.2955 88.233 26.8835 89.1989 26.5994C90.1742 26.3153 91.2254 26.1307 92.3523 26.0455C93.5739 25.9508 94.554 25.8371 95.2926 25.7045C96.0407 25.5625 96.5805 25.3684 96.9119 25.1222C97.2434 24.8665 97.4091 24.5303 97.4091 24.1136V24.0568C97.4091 23.4886 97.1913 23.053 96.7557 22.75C96.3201 22.447 95.7614 22.2955 95.0795 22.2955C94.3314 22.2955 93.7206 22.4612 93.2472 22.7926C92.7831 23.1146 92.5038 23.6117 92.4091 24.2841H85.1932C85.2879 22.9583 85.7093 21.7367 86.4574 20.6193C87.215 19.4924 88.3182 18.5928 89.767 17.9205C91.2159 17.2386 93.0246 16.8977 95.1932 16.8977C96.7557 16.8977 98.1572 17.0824 99.3977 17.4517C100.638 17.8116 101.694 18.3182 102.565 18.9716C103.437 19.6155 104.099 20.3731 104.554 21.2443C105.018 22.1061 105.25 23.0436 105.25 24.0568V39H97.9205V35.9318H97.75C97.3144 36.7462 96.7841 37.4044 96.1591 37.9062C95.5436 38.4081 94.8381 38.7727 94.0426 39C93.2566 39.2273 92.3902 39.3409 91.4432 39.3409ZM94 34.3977C94.5966 34.3977 95.1553 34.2746 95.6761 34.0284C96.2064 33.7822 96.6373 33.4271 96.9688 32.9631C97.3002 32.4991 97.4659 31.9356 97.4659 31.2727V29.4545C97.2576 29.5398 97.035 29.6203 96.7983 29.696C96.571 29.7718 96.3248 29.8428 96.0597 29.9091C95.804 29.9754 95.5294 30.0369 95.2358 30.0938C94.9517 30.1506 94.6534 30.2027 94.3409 30.25C93.7348 30.3447 93.2377 30.5009 92.8494 30.7188C92.4706 30.9271 92.1866 31.1875 91.9972 31.5C91.8172 31.803 91.7273 32.1439 91.7273 32.5227C91.7273 33.1288 91.9403 33.5928 92.3665 33.9148C92.7926 34.2367 93.3371 34.3977 94 34.3977Z" fill="#4EA8DE"/>
<path d="M108.883 39V9.90909H121.44C123.599 9.90909 125.488 10.3352 127.107 11.1875C128.727 12.0398 129.986 13.2377 130.886 14.7812C131.785 16.3248 132.235 18.1288 132.235 20.1932C132.235 22.2765 131.771 24.0805 130.843 25.6051C129.924 27.1297 128.632 28.304 126.965 29.1278C125.308 29.9517 123.371 30.3636 121.156 30.3636H113.656V24.2273H119.565C120.493 24.2273 121.283 24.0663 121.937 23.7443C122.6 23.4129 123.106 22.9441 123.457 22.3381C123.817 21.732 123.996 21.017 123.996 20.1932C123.996 19.3598 123.817 18.6496 123.457 18.0625C123.106 17.4659 122.6 17.0114 121.937 16.6989C121.283 16.3769 120.493 16.2159 119.565 16.2159H116.781V39H108.883ZM143.087 9.90909V39H135.246V9.90909H143.087ZM153.162 39.3409C151.77 39.3409 150.539 39.1136 149.469 38.6591C148.408 38.1951 147.575 37.4943 146.969 36.5568C146.363 35.6193 146.06 34.4261 146.06 32.9773C146.06 31.7841 146.263 30.7661 146.67 29.9233C147.078 29.071 147.646 28.375 148.375 27.8352C149.104 27.2955 149.952 26.8835 150.918 26.5994C151.893 26.3153 152.944 26.1307 154.071 26.0455C155.293 25.9508 156.273 25.8371 157.011 25.7045C157.759 25.5625 158.299 25.3684 158.631 25.1222C158.962 24.8665 159.128 24.5303 159.128 24.1136V24.0568C159.128 23.4886 158.91 23.053 158.474 22.75C158.039 22.447 157.48 22.2955 156.798 22.2955C156.05 22.2955 155.439 22.4612 154.966 22.7926C154.502 23.1146 154.223 23.6117 154.128 24.2841H146.912C147.007 22.9583 147.428 21.7367 148.176 20.6193C148.934 19.4924 150.037 18.5928 151.486 17.9205C152.935 17.2386 154.743 16.8977 156.912 16.8977C158.474 16.8977 159.876 17.0824 161.116 17.4517C162.357 17.8116 163.413 18.3182 164.284 18.9716C165.155 19.6155 165.818 20.3731 166.273 21.2443C166.737 22.1061 166.969 23.0436 166.969 24.0568V39H159.639V35.9318H159.469C159.033 36.7462 158.503 37.4044 157.878 37.9062C157.262 38.4081 156.557 38.7727 155.761 39C154.975 39.2273 154.109 39.3409 153.162 39.3409ZM155.719 34.3977C156.315 34.3977 156.874 34.2746 157.395 34.0284C157.925 33.7822 158.356 33.4271 158.688 32.9631C159.019 32.4991 159.185 31.9356 159.185 31.2727V29.4545C158.976 29.5398 158.754 29.6203 158.517 29.696C158.29 29.7718 158.044 29.8428 157.778 29.9091C157.523 29.9754 157.248 30.0369 156.955 30.0938C156.67 30.1506 156.372 30.2027 156.06 30.25C155.454 30.3447 154.956 30.5009 154.568 30.7188C154.189 30.9271 153.905 31.1875 153.716 31.5C153.536 31.803 153.446 32.1439 153.446 32.5227C153.446 33.1288 153.659 33.5928 154.085 33.9148C154.511 34.2367 155.056 34.3977 155.719 34.3977ZM178.556 26.7273V39H170.715V17.1818H178.158V21.3295H178.386C178.859 19.947 179.692 18.8627 180.886 18.0767C182.088 17.2907 183.49 16.8977 185.09 16.8977C186.634 16.8977 187.974 17.2528 189.11 17.9631C190.256 18.6638 191.141 19.6297 191.766 20.8608C192.401 22.0919 192.713 23.4981 192.704 25.0795V39H184.863V26.7273C184.872 25.6477 184.598 24.8002 184.039 24.1847C183.49 23.5691 182.723 23.2614 181.738 23.2614C181.094 23.2614 180.531 23.4034 180.048 23.6875C179.574 23.9621 179.21 24.3598 178.954 24.8807C178.698 25.392 178.566 26.0076 178.556 26.7273ZM204.415 26.7273V39H196.575V17.1818H204.018V21.3295H204.245C204.719 19.947 205.552 18.8627 206.745 18.0767C207.948 17.2907 209.349 16.8977 210.95 16.8977C212.493 16.8977 213.833 17.2528 214.969 17.9631C216.115 18.6638 217.001 19.6297 217.626 20.8608C218.26 22.0919 218.573 23.4981 218.563 25.0795V39H210.722V26.7273C210.732 25.6477 210.457 24.8002 209.898 24.1847C209.349 23.5691 208.582 23.2614 207.597 23.2614C206.953 23.2614 206.39 23.4034 205.907 23.6875C205.433 23.9621 205.069 24.3598 204.813 24.8807C204.558 25.392 204.425 26.0076 204.415 26.7273ZM232.888 39.3977C230.559 39.3977 228.551 38.9527 226.866 38.0625C225.19 37.1629 223.897 35.875 222.988 34.1989C222.088 32.5133 221.638 30.4962 221.638 28.1477C221.638 25.8939 222.093 23.9242 223.002 22.2386C223.911 20.553 225.194 19.2415 226.852 18.304C228.509 17.3665 230.464 16.8977 232.718 16.8977C234.366 16.8977 235.857 17.1534 237.192 17.6648C238.528 18.1761 239.669 18.9195 240.616 19.8949C241.563 20.8608 242.292 22.035 242.803 23.4176C243.315 24.8002 243.57 26.358 243.57 28.0909V29.9091H224.082V25.5909H236.354C236.345 24.9659 236.184 24.4167 235.871 23.9432C235.568 23.4602 235.156 23.0862 234.636 22.821C234.124 22.5464 233.542 22.4091 232.888 22.4091C232.254 22.4091 231.672 22.5464 231.141 22.821C230.611 23.0862 230.185 23.4555 229.863 23.929C229.55 24.4025 229.385 24.9564 229.366 25.5909V30.25C229.366 30.9508 229.513 31.5758 229.806 32.125C230.1 32.6742 230.521 33.1051 231.07 33.4176C231.62 33.7301 232.282 33.8864 233.059 33.8864C233.599 33.8864 234.091 33.8106 234.536 33.6591C234.991 33.5076 235.379 33.2898 235.701 33.0057C236.023 32.7121 236.26 32.3617 236.411 31.9545H243.57C243.324 33.4697 242.742 34.786 241.823 35.9034C240.905 37.0114 239.688 37.8731 238.173 38.4886C236.667 39.0947 234.906 39.3977 232.888 39.3977ZM246.77 39V17.1818H254.384V21.3295H254.611C255.009 19.7955 255.638 18.6733 256.5 17.9631C257.371 17.2528 258.389 16.8977 259.554 16.8977C259.895 16.8977 260.231 16.9261 260.562 16.983C260.903 17.0303 261.23 17.1013 261.543 17.196V23.8864C261.154 23.7538 260.676 23.6544 260.108 23.5881C259.54 23.5218 259.052 23.4886 258.645 23.4886C257.878 23.4886 257.187 23.6638 256.571 24.0142C255.965 24.3551 255.487 24.8381 255.136 25.4631C254.786 26.0786 254.611 26.803 254.611 27.6364V39H246.77Z" fill="#5E60CE"/>
<g clip-path="url(#clip0_43_109)">
<path d="M11.0215 12.933C14.1472 16.9011 15.8158 21.7944 15.7553 26.8155V28.0141L16.7865 28.6416C18.119 29.4482 19.1127 30.6993 19.5866 32.1669C19.1705 31.8605 18.7352 31.5803 18.2833 31.3278L15.5333 29.7838L15.0391 32.9001C14.9963 33.1755 14.9389 33.4485 14.8672 33.718H7.16151C7.04692 33.3655 6.95382 33.0129 6.86789 32.6463L6.24484 29.8261L3.70968 31.2362C3.28615 31.473 2.87723 31.7344 2.48507 32.0188C2.96824 30.5682 3.94123 29.3242 5.24224 28.4935L6.22336 27.866V26.7521C6.24106 21.7513 7.92967 16.8952 11.0287 12.933H11.0215ZM11.0287 10C10.868 10.0004 10.7128 10.058 10.5918 10.1622L10.5274 10.2186C6.39778 14.7656 4.10466 20.6454 4.08208 26.745C2.32967 27.8643 1.03251 29.5543 0.417263 31.5197C-0.197979 33.485 -0.0921719 35.6007 0.716194 37.4971C1.56776 35.6455 2.99131 34.1058 4.7839 33.0975C4.96368 33.8642 5.2031 34.6161 5.50005 35.3467C5.53771 35.4871 5.62118 35.6114 5.73763 35.7006C5.85408 35.7898 5.99706 35.8388 6.14458 35.8402H16.0847C16.2852 35.8402 16.4857 35.6498 16.586 35.3537C16.8758 34.6592 17.0778 33.9322 17.1875 33.1892C18.9836 34.1932 20.4083 35.7342 21.2553 37.5887C22.1124 35.7017 22.2451 33.5727 21.6287 31.5967C21.0124 29.6206 19.6888 27.9319 17.9037 26.8437C17.9745 20.7082 15.6935 14.7718 11.5157 10.2186C11.4535 10.1501 11.3773 10.0952 11.2922 10.0576C11.2071 10.0199 11.1149 10.0003 11.0215 10H11.0287Z" fill="#4EA8DE"/>
<path d="M11.0216 26.1598C10.4715 26.1598 9.93376 25.9995 9.47611 25.699C9.01846 25.3986 8.6614 24.9715 8.44993 24.4716C8.23847 23.9716 8.18206 23.4213 8.28782 22.8898C8.39358 22.3584 8.65678 21.8697 9.04423 21.4853C9.43169 21.1009 9.92606 20.838 10.465 20.7298C11.004 20.6216 11.5634 20.6729 12.0728 20.8773C12.5822 21.0816 13.0188 21.4298 13.3275 21.8781C13.6361 22.3263 13.8031 22.8545 13.8074 23.396C13.8159 23.7469 13.7542 24.0961 13.6256 24.4235C13.4971 24.751 13.3043 25.0503 13.0582 25.3043C12.8121 25.5583 12.5176 25.7622 12.1915 25.9041C11.8654 26.0461 11.5141 26.1234 11.1576 26.1316C11.1126 26.1387 11.0666 26.1387 11.0216 26.1316V26.1598Z" fill="#4EA8DE"/>
<path d="M14.8959 37.5958C14.7167 37.5901 14.5382 37.6198 14.3708 37.683C14.2034 37.7462 14.0505 37.8416 13.9211 37.9638C13.7917 38.086 13.6884 38.2323 13.6172 38.3943C13.546 38.5563 13.5084 38.7307 13.5066 38.9072V43.067C13.5066 43.4297 13.653 43.7776 13.9135 44.0342C14.1741 44.2907 14.5274 44.4348 14.8959 44.4348C15.2644 44.4348 15.6178 44.2907 15.8783 44.0342C16.1389 43.7776 16.2852 43.4297 16.2852 43.067V38.9636C16.291 38.7877 16.2611 38.6126 16.1973 38.4482C16.1336 38.2839 16.0372 38.1337 15.9139 38.0064C15.7906 37.879 15.6428 37.7772 15.4791 37.7067C15.3154 37.6362 15.139 37.5985 14.9604 37.5958H14.8959Z" fill="#5E60CE"/>
<path d="M7.16154 37.5958C6.97931 37.5863 6.797 37.613 6.62546 37.6743C6.45392 37.7356 6.29665 37.8302 6.16302 37.9526C6.02939 38.0749 5.92213 38.2225 5.84761 38.3865C5.77309 38.5505 5.73284 38.7275 5.72925 38.9072V43.067C5.72925 43.4297 5.87562 43.7777 6.13617 44.0342C6.39672 44.2907 6.7501 44.4348 7.11857 44.4348C7.48704 44.4348 7.84042 44.2907 8.10097 44.0342C8.36152 43.7777 8.50789 43.4297 8.50789 43.067V38.9636C8.51362 38.7877 8.48373 38.6126 8.41998 38.4482C8.35623 38.2839 8.25989 38.1337 8.13658 38.0064C8.01326 37.879 7.86544 37.7772 7.70173 37.7067C7.53802 37.6362 7.36169 37.5985 7.18302 37.5958H7.16154Z" fill="#5E60CE"/>
<path d="M10.9213 37.5958C10.7426 37.592 10.5649 37.623 10.3984 37.6869C10.2318 37.7507 10.0797 37.8463 9.95068 37.9681C9.82167 38.0899 9.71828 38.2355 9.64644 38.3966C9.5746 38.5577 9.5357 38.7312 9.53198 38.9072V44.6392C9.53198 45.002 9.67836 45.3499 9.93891 45.6064C10.1995 45.8629 10.5528 46.007 10.9213 46.007C11.2898 46.007 11.6432 45.8629 11.9037 45.6064C12.1643 45.3499 12.3106 45.002 12.3106 44.6392V38.9988C12.3164 38.823 12.2865 38.6478 12.2227 38.4835C12.159 38.3191 12.0626 38.1689 11.9393 38.0416C11.816 37.9143 11.6682 37.8124 11.5045 37.7419C11.3408 37.6714 11.1644 37.6337 10.9858 37.631L10.9213 37.5958Z" fill="#5E60CE"/>
</g>
<defs>
<clipPath id="clip0_43_109">
<rect width="22" height="36" fill="white" transform="translate(0 10)"/>
</clipPath>
</defs>
</svg>
