<svg width="13" height="13" viewBox="0 0 13 13" fill="none" xmlns="http://www.w3.org/2000/svg">
<path fill-rule="evenodd" clip-rule="evenodd" d="M11.7829 0.52164C11.0873 -0.173879 9.95967 -0.173881 9.26413 0.52164L0.859294 8.92649C0.610667 9.17512 0.441194 9.49178 0.37224 9.83652L0.0237172 11.5792C-0.142442 12.4099 0.590043 13.1424 1.42084 12.9763L3.16345 12.6277C3.50823 12.5588 3.82489 12.3893 4.07352 12.1407L12.4783 3.73585C13.1739 3.04034 13.1739 1.91268 12.4783 1.21716L11.7829 0.52164ZM10.1037 1.3612C10.3356 1.12937 10.7114 1.12937 10.9433 1.3612L11.6388 2.05673C11.8707 2.28856 11.8707 2.66445 11.6388 2.89629L10.0528 4.48231L8.51772 2.94723L10.1037 1.3612ZM7.6781 3.7868L1.69886 9.76605C1.61598 9.84893 1.5595 9.95448 1.53651 10.0694L1.18799 11.812L2.93059 11.4635C3.04552 11.4405 3.15108 11.384 3.23395 11.3011L9.21319 5.32188L7.6781 3.7868Z" fill="#808080"/>
</svg>
