<svg width="24" height="24" viewBox="0 0 24 24" fill="none" xmlns="http://www.w3.org/2000/svg">
<path d="M7 12C7 10.6739 7.52678 9.40215 8.46447 8.46447C9.40215 7.52679 10.6739 7 12 7V17C10.6739 17 9.40215 16.4732 8.46447 15.5355C7.52678 14.5979 7 13.3261 7 12Z" fill="#F2F2F2"/>
<path d="M12 23C9.82441 23 7.69767 22.3549 5.88873 21.1462C4.07979 19.9375 2.66989 18.2195 1.83733 16.2095C1.00477 14.1995 0.786929 11.9878 1.21137 9.854C1.6358 7.72021 2.68345 5.7602 4.22183 4.22182C5.76021 2.68344 7.72022 1.63579 9.85401 1.21136C11.9878 0.786919 14.1995 1.00476 16.2095 1.83732C18.2195 2.66988 19.9375 4.07978 21.1462 5.88872C22.3549 7.69766 23 9.8244 23 12C23.0066 13.4464 22.7266 14.8798 22.1762 16.2173C21.6257 17.5549 20.8157 18.7702 19.7929 19.7929C18.7702 20.8157 17.5549 21.6257 16.2173 22.1762C14.8798 22.7266 13.4464 23.0066 12 23ZM3 12C3.01313 14.3829 3.96556 16.6645 5.65055 18.3494C7.33554 20.0344 9.6171 20.9869 12 21V17C13.3261 17 14.5979 16.4732 15.5355 15.5355C16.4732 14.5978 17 13.3261 17 12C17 10.6739 16.4732 9.40214 15.5355 8.46446C14.5979 7.52678 13.3261 6.99999 12 6.99999V2.99999C9.6171 3.01312 7.33554 3.96555 5.65055 5.65054C3.96556 7.33553 3.01313 9.61709 3 12Z" fill="#F2F2F2"/>
</svg>
